# xmcd CD database file
#
# Track frame offsets:
#	183
#	9565
#	23730
#	34690
#	46800
#	60553
#	81550
#	90988
#	102005
#	114060
#	127898
#	135910
#	152823
#	165403
#	180845
#	195520
#
# Disc length: 2748 seconds
#
# Revision: 0
# Processed by: cddbd v1.4PL0 Copyright (c) Steve Scherf et al.
# Submitted via: Feurio! 1.65 - http://www.feurio.com
#
DISCID=aa0aba10
DTITLE=Champion Jack Dupree - Champion Jack Dupree and His Blues Band feat. 
DTITLE=Mickey Baker
DYEAR=1967
DGENRE=Blues
TTITLE0=Barrelhouse Woman
TTITLE1=Louise
TTITLE2=One Dirty Woman
TTITLE3=When Things Go Wrong
TTITLE4=Cut Down On My Overheads
TTITLE5=Troubles
TTITLE6=Tee-Nah-Nah
TTITLE7=Caldonia
TTITLE8=Under Your Hood
TTITLE9=Come Back Baby
TTITLE10=Baby Let Me Go With You
TTITLE11=Garbage Man
TTITLE12=I Feel Like A Millionaire
TTITLE13=Right Now
TTITLE14=Georgiana
TTITLE15=Shake, Baby, Shake
EXTD=ARD London Records 820569-2
EXTT0=
EXTT1=
EXTT2=
EXTT3=
EXTT4=
EXTT5=
EXTT6=
EXTT7=
EXTT8=
EXTT9=
EXTT10=
EXTT11=
EXTT12=
EXTT13=
EXTT14=
EXTT15=
PLAYORDER=
